<svg xmlns="http://www.w3.org/2000/svg" xmlns:xlink="http://www.w3.org/1999/xlink" width="24" height="24" viewBox="0 0 24 24">
  <defs>
    <clipPath id="clip-Download">
      <rect width="24" height="24"/>
    </clipPath>
  </defs>
  <g id="Download" clip-path="url(#clip-Download)">
    <g id="Group_1" data-name="Group 1" transform="translate(-428 -188)">
      <g id="vuesax_outline_folder-2" data-name="vuesax/outline/folder-2">
        <g id="folder-2">
          <path id="Vector" d="M15.75,21.5h-10C1.34,21.5,0,20.16,0,15.75v-10C0,1.34,1.34,0,5.75,0h1.5a3.092,3.092,0,0,1,3,1.5l1.5,2c.33.44.38.5,1,.5h3c4.41,0,5.75,1.34,5.75,5.75v6C21.5,20.16,20.16,21.5,15.75,21.5Zm-10-20c-3.58,0-4.25.68-4.25,4.25v10c0,3.57.67,4.25,4.25,4.25h10c3.58,0,4.25-.68,4.25-4.25v-6c0-3.57-.67-4.25-4.25-4.25h-3a2.3,2.3,0,0,1-2.2-1.1l-1.5-2a1.682,1.682,0,0,0-1.8-.9Z" transform="translate(429.25 189.25)" fill="#292d32"/>
          <path id="Vector-2" data-name="Vector" d="M12.75,5.88A.755.755,0,0,1,12,5.13V3.75c0-1.58-.67-2.25-2.25-2.25h-9A.755.755,0,0,1,0,.75.755.755,0,0,1,.75,0h9A3.381,3.381,0,0,1,13.5,3.75V5.13A.755.755,0,0,1,12.75,5.88Z" transform="translate(435.25 189.25)" fill="#292d32"/>
          <path id="Vector-3" data-name="Vector" d="M0,0H24V24H0Z" transform="translate(428 188)" fill="none" opacity="0"/>
        </g>
      </g>
    </g>
    <path id="Icon_open-data-transfer-download" data-name="Icon open-data-transfer-download" d="M3.252,0V3.252H1.084L4.336,6.5,7.588,3.252H5.42V0ZM0,7.588V8.672H8.672V7.588Z" transform="translate(7.664 9.03)"/>
  </g>
</svg>
